<?xml version="1.0" encoding="UTF-8"?>
<svg width="375" height="375" viewBox="0 0 375 375" fill="none" xmlns="http://www.w3.org/2000/svg">
  <path d="M350.34 187.5C350.34 229.944 334.33 269.93 305.156 300.548C304.216 301.535 303.265 302.509 302.302 303.476C271.323 334.459 230.136 351.518 186.33 351.518C177.057 351.518 167.893 350.751 158.929 349.251C125.539 343.669 94.772 327.898 70.3579 303.476C39.3754 272.498 22.3164 231.31 22.3164 187.504C22.3164 143.698 39.3754 102.507 70.3579 71.5322C101.336 40.5497 142.524 23.4907 186.33 23.4907C230.136 23.4907 271.327 40.5497 302.302 71.5322C333.285 102.511 350.344 143.698 350.344 187.504L350.34 187.5Z" fill="#2563EB"/>
  <path d="M360.254 114.508C350.813 92.1803 337.296 72.1307 320.081 54.9191C302.869 37.7036 282.82 24.1871 260.492 14.7456C237.362 4.95955 212.803 0 187.5 0C162.197 0 137.638 4.95955 114.508 14.7456C92.1803 24.1871 72.1307 37.7036 54.9191 54.9191C37.7036 72.1307 24.1871 92.1803 14.7456 114.508C4.95955 137.638 0 162.197 0 187.5C0 212.803 4.95955 237.362 14.7456 260.492C24.1871 282.82 37.7036 302.869 54.9191 320.081C72.1307 337.296 92.1803 350.813 114.508 360.254C137.638 370.04 162.197 375 187.5 375C212.803 375 237.362 370.04 260.492 360.254C282.82 350.813 302.869 337.296 320.081 320.081C337.296 302.869 350.813 282.82 360.254 260.492C370.04 237.362 375 212.803 375 187.5C375 162.197 370.04 137.638 360.254 114.508ZM290.163 285.168C289.353 286.022 288.531 286.863 287.697 287.697C260.934 314.464 225.348 329.201 187.5 329.201C179.487 329.201 171.572 328.54 163.826 327.244C134.977 322.422 108.398 308.796 87.303 287.697C60.5363 260.934 45.7985 225.348 45.7985 187.5C45.7985 149.652 60.5363 114.066 87.303 87.303C114.066 60.5363 149.652 45.7985 187.5 45.7985C225.348 45.7985 260.934 60.5363 287.697 87.303C314.464 114.066 329.201 149.652 329.201 187.5C329.201 225.348 315.368 258.715 290.163 285.168Z" fill="#231F20"/>
  <path d="M105.304 181.526L166.204 95.8127L266.581 147.69L201.167 205.209L105.304 181.526Z" fill="#231F20" stroke="#231F20" stroke-width="1.94939" stroke-miterlimit="10"/>
  <path d="M290.165 285.168C289.354 286.022 288.532 286.863 287.698 287.697C260.936 314.464 225.35 329.201 187.501 329.201C179.489 329.201 171.574 328.54 163.827 327.244C160.163 318.053 157.047 309.124 154.93 301.072C141.398 252.577 139.139 198.441 147.034 165.736C147.034 165.736 103.123 139.924 95.1567 144.308C72.598 156.713 65.8339 113.858 95.1567 134.158C105.307 133.031 142.525 144.308 154.93 154.458C163.952 143.181 183.125 137.54 198.916 143.181C201.171 129.645 229.366 105.963 229.366 105.963C235.007 81.1494 267.711 100.322 236.134 113.858C228.239 118.368 206.811 145.436 212.448 149.945C224.853 158.968 267.712 225.509 276.734 251.45C279.048 258.104 284.031 270.462 290.165 285.168Z" fill="#FFBF00"/>
</svg>